<svg width="1928" height="1927" viewBox="0 0 1928 1927" fill="none" xmlns="http://www.w3.org/2000/svg">
<path d="M1200.82 575.01C1204.83 578.67 1205.66 584.96 1204.27 590C1203.81 592.98 1200.57 597.5 1197.53 594.29C1172.6 564.12 1155.19 542.87 1112.86 542.21C1094.59 542.51 1072.14 547.69 1064.35 566.23C1061.55 570.44 1061.42 581.95 1056.33 582.43C1047.03 578.76 1052.79 562.63 1055.68 555.88C1062.8 533.42 1086.5 523.04 1108.57 522.37C1135.65 520.94 1162.92 531.71 1180.9 552.16C1187.95 559.39 1194.24 567.35 1200.82 575.01Z" fill="black"/>
<path d="M914.96 567.92C922.15 578.74 915.17 597.1 908.91 582.52C901.27 566.3 885.59 552.36 867.39 550.17C854.15 549.34 841.41 557.56 835.39 569.17C832.46 575.15 831.17 581.73 830.33 588.29C829.87 591.85 829.87 601.37 824.14 599.26C814.76 592.35 823.37 563.8 827.63 554.74C850.81 511.66 897.16 531.68 914.96 567.92Z" fill="black"/>
<path d="M1108.62 643.56C1130.04 641.65 1132.13 611.71 1119.65 598.47C1116.9 595.95 1113.69 594.63 1109.96 593.93C1106.84 593.34 1103.53 592.71 1102.12 589.46C1085.13 598.93 1085.7 642.15 1108.62 643.56ZM1131.08 594.75C1142.83 616.66 1141.85 665.31 1107.86 662.92C1078.39 652.59 1074.72 609.36 1084.91 584C1088.5 575.89 1095.85 568.11 1105.26 568C1113.04 568.23 1118.9 574.82 1122.13 581.36C1125.82 585.35 1128.74 589.85 1131.08 594.75Z" fill="black"/>
<path d="M890.83 640.28C901.74 637.74 903.24 621.31 900.81 612.21C898.51 607.63 893.9 604.44 890.24 600.92C888.04 598.58 886.07 596.01 882.44 596.33C869.2 598.64 868.81 616.27 874.65 625.7C878.45 631.63 883.17 639.52 890.83 640.28ZM903.5 594.52C911.21 604.18 912.88 617.63 912.3 629.61C911.39 641.23 907.18 659.55 892.84 659.95C874.76 656.39 863.13 631.22 860.93 614.48C858.75 600.21 862.57 577.61 880.37 576.68C889.35 577.79 899.55 586.54 903.5 594.52Z" fill="black"/>
<path d="M905.43 628.11C905.75 631.72 906.63 638.01 902.1 639.18C899.98 642.92 897.69 647.74 893.38 649.19C892.28 650.23 891.05 650.2 889.71 649.84C882.58 646.64 877.15 639.81 874.52 632.53C868.56 625.1 864.89 614.99 867.47 605.53C867.23 602.92 867.23 599.89 868.78 597.64C871.08 594.68 874.46 592.71 877.53 590.64C884.22 585.37 888.17 587.84 890.59 595.39C897.32 593.44 900.25 602.26 900.59 607.49C903.11 614.02 905.98 621.05 905.43 628.11Z" fill="black"/>
<path d="M1127.89 624.13C1132.39 631.59 1131.14 642.18 1122.75 646.18C1116.7 649.32 1111.19 656.02 1107.37 646.13C1097.19 651.58 1092.01 642.42 1091.84 633.23C1085.9 628.21 1086.04 619.03 1088.07 612.14C1083.72 605.29 1084.44 595.55 1091.54 590.86C1092.48 583.43 1100.96 581.57 1106.97 579.64C1114.75 576.48 1118.17 580.25 1119.77 587.72C1124.66 589.73 1126 596.13 1126.09 600.93C1133.64 605.32 1135.11 618.75 1127.89 624.13Z" fill="black"/>
<path d="M968.92 615.6C971.04 637.51 970.06 662.8 955.8 680.79C949.31 689.67 937.39 693.44 931.72 702.82C936.61 708.62 941.57 714.45 947.28 719.47C951.9 722.33 953.67 728.11 953.47 733.31C953.62 736.34 951.33 741.38 947.73 738.86C941.24 734.04 936.04 727.76 930.72 721.74C923.24 714.26 920.09 703.25 921.39 692.85C922.74 682.39 932.59 676.92 940.16 671.04C957.84 659.07 959.56 637.24 959.17 617.71C958.02 606.68 965.84 604.84 968.92 615.6Z" fill="black"/>
<path d="M1067.73 831.52C1070.12 840.15 1071.63 852.18 1063.27 858.05C1054.81 863.93 1044.4 865.77 1034.32 865.41C1017.6 865.3 1004.85 852.57 996.35 839.35C988.8 827.53 982.9 812.44 987.87 798.53C991.69 788.4 1002.95 781.77 1013.64 783.96C1028.94 781.88 1041.51 792.59 1050.82 803.42C1058.24 811.51 1064.79 820.81 1067.73 831.52Z" fill="black"/>
<path d="M1176.21 459.8C1181.31 463.84 1176.71 473.32 1172.82 476.9C1170.47 479.28 1168.48 484.31 1164.28 483.24C1141.12 478.45 1116.99 480.69 1093.5 481.34C1075.16 482.63 1056.73 483.86 1038.39 481.91C1022.82 482.58 1022.89 470.81 1030.91 460.88C1043.86 449.99 1063.84 449.79 1079.94 448.31C1112.42 446.39 1145.23 449.54 1176.21 459.8Z" fill="black"/>
<path d="M1345.95 548.28C1347.21 552.23 1346.57 564.17 1340.37 562.61C1339.24 562.9 1338.2 563.32 1337.15 563.81C1333.56 565.81 1330.23 568.23 1327.01 570.8C1337.2 574.36 1345.87 579.72 1345.53 591.78C1346.29 604.47 1336.09 613.58 1325.83 619.16C1320.45 622.28 1314.9 625.16 1309.17 627.6C1307.7 628.24 1306.18 626.93 1305.4 625.8C1302.44 620.67 1302.02 611.37 1307.54 607.86C1316.25 604 1324.79 599.53 1332.23 593.53C1326.69 590.67 1320.39 589.2 1315.32 585.5C1307.2 578.33 1308.66 563.54 1317.24 557.29C1323.5 552.82 1342.08 533.27 1345.95 548.28Z" fill="black"/>
<path d="M1218.75 689.93C1218.79 689.91 1218.82 689.89 1218.86 689.87C1217.18 687.46 1215.38 685.13 1213.54 682.85C1212.98 682.15 1212.57 681.28 1212.27 680.35C1208.09 685.55 1209.51 690.74 1216.65 690.61C1217.38 690.46 1218.07 690.23 1218.75 689.93ZM1228.66 680.11C1232.07 687.47 1232.25 696.65 1227.77 703.58C1221.84 712.66 1209.79 712.98 1204.05 703.45C1193.19 689.74 1205.52 650.32 1212.79 668.07C1213.92 664.86 1217.41 663.48 1219.45 666.72C1222.77 670.99 1226.19 675.28 1228.66 680.11Z" fill="black"/>
<path d="M526.23 269.71C527.87 270.2 529.52 270.68 531.18 271.15C516.95 258.02 500.01 246.16 480.38 243.63C491 258.55 509.41 264.62 526.23 269.71ZM557.73 275.92C563.46 281.51 567.09 289.81 563.31 297.53C561.79 301.26 557.75 301.32 556.24 297.53C555.34 296.3 554.79 295.7 553.92 294.64C553.04 295.96 551.81 296.79 550.12 296.38C540.18 293.97 530.34 291.19 520.56 288.23C495.86 281.5 461.49 262.75 469.52 232.28C475.4 210.66 515.06 235.87 525.12 244.16C536.92 253.71 547.76 264.49 557.73 275.92Z" fill="black"/>
<path d="M524.14 383.59C506.72 383.17 487.99 383.33 472.21 391.56C480.64 393.81 489.62 392.89 498.16 391.72C507.16 390.23 515.79 387.17 524.14 383.59ZM549.54 372.47C555.55 375.8 555.47 388.76 549.69 392.28C527.15 403.03 503.56 415.07 477.81 412.63C455.48 412.97 450.73 384.11 468.01 373.21C486.58 362.47 509.34 363.02 530.14 363.87C537.1 364.82 548.7 362.88 549.54 372.47Z" fill="black"/>
<path d="M1593.61 1637.33C1576.63 1631.86 1573.26 1608.97 1584.01 1596.17C1588.02 1590.22 1601.58 1584.69 1602.99 1595.24C1624.71 1602.02 1619.05 1647.09 1593.61 1637.33ZM1602.85 1618.67C1603.62 1618.53 1604.35 1618.34 1605.08 1618.08C1605.12 1618.06 1605.17 1618.03 1605.21 1618.01C1601.38 1613.79 1595.07 1613.86 1590.54 1611.15C1590.17 1611.46 1589.81 1611.79 1589.46 1612.14C1589.28 1612.35 1589.11 1612.57 1588.94 1612.78C1592.21 1616.83 1597.7 1618.93 1602.85 1618.67Z" fill="black"/>
<path d="M1665.25 1547.12C1665.56 1547.06 1665.86 1546.98 1666.15 1546.9C1665.35 1546.25 1664.54 1545.63 1663.7 1545.03C1663.61 1545.09 1663.53 1545.15 1663.45 1545.21C1662.94 1545.65 1662.45 1546.1 1661.97 1546.57C1663 1547 1664.14 1547.21 1665.25 1547.12ZM1675.98 1534.14C1683.91 1545.78 1678.41 1569.16 1661.51 1566.84C1644.21 1562.6 1647.77 1537.14 1658.97 1527.95C1660.02 1525.34 1661.97 1522.57 1664.71 1524.15C1672.09 1520.61 1676.68 1527.12 1675.98 1534.14Z" fill="black"/>
<path d="M1735.7 1642.25C1727.53 1640.63 1732.83 1613.28 1731.7 1605.91C1731.96 1586.31 1732.26 1566.71 1730.86 1547.14C1726.3 1501 1715.57 1446.87 1689.88 1407.82C1687.07 1403.28 1688.77 1386.22 1696.34 1391.56C1709.34 1409.71 1716.99 1431.19 1723.48 1452.41C1738.4 1500.1 1743.6 1550.23 1741.76 1600.03C1740.54 1608.06 1744.88 1641.89 1735.7 1642.25Z" fill="black"/>
<path d="M1788.61 899.8C1795.33 899.98 1794.47 911.38 1792.62 915.81C1791.22 921.1 1778.39 922.15 1773.39 924.95C1736.53 937.31 1706.18 963.89 1682.46 994.07C1679.41 998.08 1676.5 1002.17 1673.69 1006.36C1671.3 1009.07 1670.52 1014.42 1666.46 1014.93C1646.74 1004.29 1696.05 955.94 1705.74 946.66C1728.88 924.14 1757.58 908.44 1788.61 899.8Z" fill="black"/>
<path d="M1696.31 1231.39C1704.62 1229.22 1703.64 1247.55 1698.47 1250.51C1677.32 1264.64 1656.31 1279.91 1634.55 1292.68C1628.35 1290.37 1629.44 1280.31 1631.92 1275.44C1634.86 1271.33 1639.86 1269.39 1643.88 1266.51C1661.57 1255.13 1678.89 1243.18 1696.31 1231.39Z" fill="black"/>
<path d="M1726.71 917.61C1677.87 894.89 1628.86 872.65 1580.92 848.1C1564.69 840.42 1546.46 836.7 1531.78 825.99C1517.57 816.06 1510.26 797.72 1490.38 808.15C1486.22 807.21 1485.8 801.42 1485.91 797.9C1485.39 785.66 1501.09 783.44 1510.26 786.16C1520.05 790.26 1525.84 800.13 1534.41 806.07C1545.1 814.48 1558.31 818.25 1570.78 823.14C1600.97 834.92 1628.44 852.45 1658.21 865.2C1682.09 875.78 1705.78 886.78 1729.38 897.99C1735.28 901.09 1734.21 918.27 1726.71 917.61Z" fill="black"/>
<path d="M777.21 542.37C774 533.61 771.14 524.74 768.77 515.74C767.41 518.11 766.05 520.49 764.69 522.86C768.81 529.4 773 535.89 777.21 542.37ZM819.9 641.38C819.84 641.2 819.78 641.01 819.72 640.83C819.57 640.87 819.42 640.9 819.27 640.91C819.48 641.07 819.69 641.23 819.9 641.38ZM1030.63 932C1030.2 931.29 1029.98 930.55 1030.02 929.77C1030 929.63 1029.99 929.48 1029.98 929.34C1018.67 922.93 1007.45 916.23 996.41 909.25C996.66 909.97 996.85 910.79 996.98 911.68C998.11 918.93 994.46 925.84 993.03 932.84C988.56 949.05 982.39 964.64 979.69 981.25C994.71 978.75 1013.54 946.33 1030.63 932ZM1181.84 152.1C1165.31 148.13 1154.15 134.85 1158.66 117.48C1152.69 114.6 1143.18 114.08 1141.46 106.42C1141.36 106.14 1141.28 105.82 1141.21 105.46C1139.21 105.22 1137.57 103.98 1136.52 101.28C1132.31 105.09 1129.46 97.74 1129.37 94.29C1126.36 88.86 1122.75 83.82 1118.94 78.92C1091.95 46.33 1036.77 48.85 998.02 50.44C934.14 55.42 873.55 82.69 822.43 120.53C801.59 136.86 759.69 170.58 759.83 198.44C801.85 162.94 795.64 254.55 758.42 221.78C722.56 260.1 687.54 315.5 676.73 367.21C665.02 445.16 699.71 523.75 751.54 580.71C770.86 601.84 792.61 620.8 815.47 638.07C813.94 635.25 813.75 631.59 812.62 628.64C809.68 619.54 804.93 611.19 800.24 602.89C779.14 569.6 755.62 537.55 737.73 502.33C707.82 433.82 740.15 345.04 781.62 287.64C776.04 289 770.41 292.05 764.56 290.99C757.97 287.54 758.69 277.4 761.29 271.5C771.09 257.3 786.38 247.66 799.33 236.49C817.87 221.64 837.94 208.72 856.17 193.5C844.97 152.03 893.49 127.31 926.57 117.86C941.99 113.48 957.82 110.65 973.78 109.25C989.28 105.71 994.86 116.99 990.83 130.57C1034.19 118.45 1079.12 112.07 1124.17 113.28C1139.75 115.21 1132.24 140.49 1128.48 150.06C1123.53 163.59 1117.91 176.87 1113.34 190.52C1135.23 176.25 1155.66 157.8 1181.84 152.1ZM1215.73 21.1C1187.75 22.24 1157.16 56.97 1144.53 80.36C1150.73 75.72 1158.85 75.01 1165.3 71.2C1184.66 57.57 1203.9 41.97 1215.73 21.1ZM1205.07 1031.16C1203.12 1026.68 1201.1 1022.19 1198.85 1017.56C1196.74 1012.76 1194.01 1007.67 1192.68 1002.43C1183.15 989.21 1177.13 971.11 1169.05 958.09C1161.57 943.95 1153.48 930.13 1146.16 915.9C1144.41 913.55 1144.06 907.7 1145.11 903.6C1126.74 917.97 1108.02 929.25 1090.02 935.65C1098 941.64 1108.1 944.58 1115.2 951.63C1124.14 962.56 1124.43 977.45 1128.28 990.48C1130.95 999.75 1141.91 1001.47 1149.85 1004.22C1164.91 1008.24 1179.65 1013.5 1192.53 1022.47C1195.27 1024.54 1200.16 1027.66 1205.07 1031.16ZM1301.2 204.09C1285.02 214.69 1266.34 221.93 1251.41 234.2C1239.84 255.79 1230.67 248.84 1211.26 253.58C1210.03 268.57 1205.13 273.37 1197.64 274.53C1204.23 280.33 1211.02 285.89 1218.11 291.06C1218.64 289.73 1219.43 288.54 1220.56 287.61C1227.02 283.7 1232.15 278.15 1237.36 272.77C1259.71 250.89 1280.08 227.12 1301.2 204.09ZM1290.24 703.29C1290.33 703.27 1290.42 703.25 1290.52 703.22C1290.19 703.27 1289.85 703.26 1289.45 703.22C1289.71 703.25 1289.97 703.27 1290.24 703.29ZM1368.63 680.9C1368.27 677.64 1367.75 674.38 1367.08 671.13C1366.1 664.01 1361.35 657.39 1363.57 650.06C1363.67 649.72 1363.78 649.35 1363.93 648.98C1360.66 652.09 1357.16 655.1 1353.5 657.97C1355.94 659.88 1357.15 664.34 1359.06 666.52C1362.16 671.37 1365.39 676.14 1368.63 680.9ZM1368.88 704.44C1368.71 704.26 1368.55 704.07 1368.38 703.87C1363.2 693.44 1344.1 675.58 1347.12 662.7C1329.62 674.93 1309.09 683.46 1289.6 683.36C1290.67 683.63 1291.83 684.76 1293.02 687.11C1296.88 696.17 1291.67 705.88 1290.5 715.08C1286.8 731.17 1282.71 747.17 1278.42 763.11C1261.67 825.07 1238.34 885.66 1205.29 940.83C1204.75 941.49 1204.12 942.45 1203.41 943.61C1202.89 945.88 1201.55 947.79 1199.97 949.59C1198.31 953.23 1196.59 956.84 1194.77 960.4C1195.13 964.18 1195.15 969.76 1191.23 971.7C1190.86 972.04 1190.49 972.31 1190.13 972.52C1192.59 976.86 1195.39 981.83 1197.52 986.61C1198.36 986.75 1199.18 987.31 1199.86 988.44C1201.68 991.23 1201.74 994.8 1203.33 997.75C1209.42 1010.78 1215.3 1023.91 1220.82 1037.2C1221.77 1039.12 1222.71 1041.17 1223.45 1043.29C1225 1023.58 1269.86 994.22 1275.75 980C1269.1 951.95 1251.95 926.08 1274.59 900.8C1306.36 855.23 1341.19 810.65 1357.04 756.51C1362.66 739.71 1367.43 722.16 1368.88 704.44ZM1387.54 571.4C1387.56 571.79 1387.57 572.19 1387.59 572.58C1387.11 553.36 1379.21 532.56 1361.9 522.88C1341.09 514.16 1320.95 525.41 1309.05 542.43C1309.58 543.33 1309.95 544.33 1310.07 545.19C1313.53 555.87 1303.95 562.86 1297.37 569.6C1290.46 575.9 1278.21 591.68 1268.32 583.5C1256.82 571.86 1255.59 554.12 1251.4 539.05C1244.33 507.9 1234.95 477.33 1227.03 446.39C1219.26 419.89 1213.48 391.43 1196.77 368.85C1188.06 357.67 1175.09 351.49 1161.89 347.21C1119.04 335.26 1098.46 309.6 1082.11 269.64C1075.64 254.68 1070.66 239.17 1065.76 223.64C1065.62 223.23 1065.47 222.82 1065.33 222.41C1060.04 240.22 1046.46 261.45 1039.56 272.89C1008.33 318.44 968.45 357.92 925.31 392.22C913.03 400.23 886.24 425.31 871.94 414.9C863.11 407.03 864.19 393.22 866.16 382.66C840.39 417.59 811.58 450.23 787.16 486.18C786 487.84 784.85 489.52 783.73 491.2C785.9 488.97 788.21 486.84 790.27 484.58C801.92 472.69 817.38 465.07 833.42 461.09C845.44 458.89 866.23 454.63 876.52 462.27C879.68 465.38 879.39 470.56 878.14 474.48C875.91 482.4 868.97 487.94 860.9 488.99C842.53 492.17 824.11 495.17 806.31 500.84C799.33 503.12 792.5 505.63 785.97 509.01C783.49 509.92 781.37 512.7 778.76 513.05C779.18 514.77 779.61 516.49 780.06 518.2C787.66 546.11 800.29 572.18 812.95 598.07C821.25 616.24 829.72 634.66 833.97 654.27C837.29 672.28 836.12 690.91 841.5 708.59C857.21 763.47 895.85 813.32 937.98 850.97C960.02 870.01 984.91 885.23 1009.56 900.59C1017.03 905.22 1024.55 909.86 1032.26 914.09C1033.25 914.44 1034.17 914.89 1035.03 915.44C1035.43 915.21 1035.86 915.02 1036.32 914.87C1051.5 921.79 1064.48 924.09 1081.02 919.66C1145.12 899.59 1193.89 840.96 1232.61 788.57C1248.02 767.01 1260.11 743.32 1268.32 718.11C1273.32 703.46 1277.22 688.46 1281.25 673.52C1281.82 671.4 1282.87 669.14 1284.48 667.6C1285.14 667.08 1285.73 666.73 1286.28 666.52C1287.29 664.69 1288.83 663.65 1290.94 664.16C1290.59 663.93 1290.19 663.93 1289.79 663.86C1334.67 660.96 1389.22 619.25 1387.53 571.01C1387.53 571.14 1387.54 571.27 1387.54 571.4ZM1468.52 921.29C1472.6 850.68 1479.04 778.79 1467.94 708.59C1466.81 703.75 1463.87 699.67 1459.66 697.01C1436.45 680.98 1413.7 663.77 1387.99 651.89C1378.32 649.64 1375.78 642.1 1378.5 633.07C1378.53 632.85 1378.57 632.65 1378.62 632.46C1377.99 633.33 1377.33 634.19 1376.67 635.04C1373.86 638.63 1370.72 642.19 1367.3 645.66C1367.55 645.64 1367.81 645.66 1368.08 645.71C1368.08 645.71 1368.08 645.71 1368.09 645.71C1374.19 649.19 1374.2 658.49 1376.16 664.64C1382.28 692.85 1379.26 722.3 1371.46 749.87C1357.81 803.35 1329.75 850.74 1297 894.62C1292.46 901.14 1287.88 907.61 1283.34 914.13C1284 913.88 1284.66 913.65 1285.32 913.45C1285.53 913.36 1285.74 913.29 1285.94 913.24C1288.35 908.61 1292.55 904.52 1296.21 900.89C1303.09 893.86 1314.08 894.34 1322.7 897.51C1343.13 901.96 1380.33 961.31 1395.34 980.01C1409.38 999.55 1422.27 1020.63 1441.39 1035.73C1443.24 1037.01 1447.28 1039.75 1448.09 1036.29C1449.79 1030.73 1451.07 1025.03 1452.48 1019.39C1460.82 987.25 1466.23 954.43 1468.52 921.29ZM1699.54 1545.79C1700.52 1517.09 1690.25 1489.4 1683.47 1461.86C1676.11 1436.7 1670.84 1409.91 1656.57 1387.58C1648.41 1377.32 1636.96 1370.41 1626.62 1362.57C1601.55 1346.02 1579.07 1326.11 1556.33 1306.58C1557.6 1309.17 1558.67 1311.87 1559.55 1314.65C1565.17 1330.29 1569.24 1346.45 1573.28 1362.55C1581.98 1402.94 1588.25 1445.76 1575.76 1486.05C1566.24 1517.73 1552.07 1550.13 1525.03 1570.67C1512.89 1579.31 1498.48 1587.43 1483.45 1591.17C1489.71 1596.32 1495.86 1601.6 1501.77 1607.15C1521.73 1627.58 1542.69 1653.04 1572.84 1656.61C1595.18 1655.95 1633.07 1638.29 1651.66 1625.45C1675.3 1605.29 1695.57 1577.21 1699.54 1545.79ZM1872.5 1695.23C1886.54 1671.5 1895.04 1658.13 1885.62 1630.45C1877.31 1601.33 1871.17 1571.54 1861.25 1542.9C1848.64 1508.36 1822.6 1481.58 1798.16 1455.02C1772.03 1426.05 1748.09 1395.12 1722.15 1366.04C1712.65 1356.3 1698.65 1353.4 1685.86 1357.78C1676.87 1360.28 1667.72 1362.92 1659.16 1366.74C1662.76 1370.72 1665.91 1375.1 1668.39 1380.06C1682.58 1409.2 1689.31 1441.24 1698.03 1472.28C1704.97 1499.69 1713.13 1528.12 1708.28 1556.56C1700.74 1594.03 1677.21 1629.62 1645.05 1650.44C1623.26 1661.37 1595.23 1676.4 1570.69 1676.51C1567.84 1676.13 1565.07 1675.57 1562.37 1674.85C1564.19 1677.12 1565.74 1678.99 1566.69 1679.7C1587.59 1702.66 1612.44 1725.17 1643.44 1732.42C1658.94 1735.43 1674.85 1734.63 1690.39 1737.33C1724.15 1743.72 1759.67 1753.66 1792.65 1738.59C1805.33 1733.94 1817.65 1727.58 1831.21 1725.88C1850.01 1726.87 1862.62 1709.04 1872.5 1695.23ZM1927.48 1425.3C1926.05 1437.41 1928.3 1511.36 1917.6 1509.31C1919.8 1527.47 1918.3 1545.85 1915.8 1563.88C1912.94 1583.83 1908.42 1603.5 1903.62 1623.07C1902.32 1626.01 1901.43 1635.22 1898.98 1640.29C1899.69 1645.32 1900.08 1650.4 1900.05 1655.52C1897.28 1685.73 1865.84 1746.3 1831.53 1745.71C1800.83 1751.8 1774.18 1771.42 1741.24 1766.28C1720.1 1764.29 1699.65 1758.07 1678.54 1755.9C1667.96 1754.86 1657.29 1754.78 1646.76 1753.18C1604.62 1745.79 1573.13 1712.22 1547.02 1680.6C1544.68 1677.22 1544.04 1672.12 1545.27 1667.85C1525.95 1657.14 1510.36 1638.97 1495.06 1623.51C1488.17 1617.22 1481 1611.26 1473.74 1605.4C1470.51 1602.37 1470.44 1597.27 1471.15 1593.13C1464.18 1593.63 1457.17 1592.99 1450.29 1590.84C1437.95 1586.65 1432.92 1573.63 1431.28 1561.7C1426.09 1533.55 1425.69 1504.43 1423.86 1476C1422.78 1462.59 1421.41 1449.18 1418.32 1436.07C1416.28 1429.84 1413.13 1416.66 1421.52 1414.17C1427.94 1415.58 1430.53 1444.65 1431.85 1451.45C1435.8 1483.97 1434.74 1516.91 1440.03 1549.28C1440.96 1565.03 1448.87 1573.53 1465.07 1573.34C1491.66 1572.98 1517.44 1559.06 1535.29 1539.82C1552.41 1520.81 1561.56 1496.39 1568.54 1472.14C1574.9 1448.33 1573.28 1423.37 1569.15 1399.32C1566.47 1381.47 1562.44 1363.89 1557.35 1346.58C1554.09 1335.42 1551.2 1323.85 1544.71 1314.04C1533.08 1299.4 1512.11 1300.05 1495.9 1293.69C1492.87 1291.61 1491.86 1287.72 1492.13 1283.83C1491.47 1283.9 1490.79 1283.99 1490.11 1284.07C1483.18 1281.91 1484.47 1268.18 1489.39 1264.5C1498.78 1263.46 1508.64 1262.55 1518.14 1263.55C1539.49 1266.83 1555.02 1283.43 1570.91 1296.62C1577.37 1302.21 1583.82 1307.8 1590.37 1313.29C1588.6 1301.34 1591.26 1288.76 1594.72 1277.34C1594.8 1277.05 1594.89 1276.77 1594.98 1276.48C1594.86 1276.39 1594.73 1276.31 1594.6 1276.21C1571.25 1251.3 1564.31 1216.51 1556.4 1184.4C1546.63 1142.16 1539.97 1098.78 1541.88 1055.33C1544.24 991.12 1570.06 1028.21 1553.6 1039.13C1546.44 1101.21 1561.04 1164.25 1579.01 1223.42C1582.72 1233.27 1587.69 1242.58 1593.76 1251.18C1595.32 1253.71 1597.74 1255.79 1599.59 1258.14C1599.57 1256.28 1599.3 1254.42 1598.66 1252.55C1565.55 1182.78 1592.72 1134.52 1616.08 1067.83C1621.46 1054.42 1627.9 1070.52 1624.47 1077.47C1611.09 1120.21 1584.83 1164.11 1595.97 1210.09C1602.37 1230.92 1614.9 1250.09 1607.59 1272.7C1604.95 1282.81 1600.29 1292.55 1599.92 1303.15C1599.92 1308.99 1603.33 1314.53 1600.93 1320.41C1600.83 1320.85 1600.7 1321.27 1600.55 1321.66C1607.23 1327 1614.05 1332.16 1621.11 1337C1629.06 1343 1637.8 1348.52 1645.85 1354.73C1648.54 1351.08 1653.06 1349.3 1657.09 1347.52C1670.34 1342.19 1684.05 1336.98 1698.39 1335.77C1729.27 1335.79 1743.61 1371.13 1762.91 1390.2C1790.06 1423.7 1821.48 1454.15 1847.13 1488.45C1866.91 1515.05 1875.88 1547.2 1883.59 1578.94C1886.3 1591.71 1890.48 1604.34 1893.95 1617.07C1896.02 1609.75 1898.33 1602.61 1898.8 1597.93C1902.73 1581.01 1905.96 1563.9 1907.75 1546.61C1908.78 1533.36 1909.31 1520.81 1906.55 1507.91C1904.05 1499.58 1898.28 1494.31 1903.3 1484.95C1907.83 1478.4 1911.49 1485.01 1913.8 1491.82C1914.43 1480.76 1916.67 1467.65 1916.06 1462.35C1919.29 1408.74 1915.92 1354.94 1910.76 1301.55C1900.18 1220.38 1883.65 1140.07 1869.84 1059.4C1860.22 1009.44 1852.89 958.71 1838.76 909.79C1830.15 880.17 1806.33 866.68 1781.49 852.01C1722.84 815.4 1660.03 786.41 1597.81 756.53C1568.34 742.36 1539.57 726.78 1510.17 712.48C1499.91 707.7 1489.49 703.09 1478.4 700.61C1477.52 700.53 1476.76 700.32 1476.09 700C1484.45 728.07 1482 758.8 1483.93 787.81C1483.14 862.72 1482.03 938.76 1465.85 1012.19C1463.54 1022.39 1461.03 1032.53 1458.4 1042.65C1456.7 1051.92 1451.15 1063.21 1440.41 1055.36C1410.09 1031.97 1392.69 996.23 1368.98 966.8C1362.71 958.29 1356.34 949.86 1349.48 941.82C1341.79 934.01 1336.19 922.9 1325.81 918.46C1303.79 907.64 1296.85 925.77 1291.52 930.16C1291.12 931.01 1290.61 931.69 1290 932.13C1285.4 934.4 1280.48 936.06 1276.04 938.69C1275.52 938.99 1274.96 939 1274.42 938.84C1274.79 940.1 1275.26 941.46 1275.82 942.95C1285.01 973.84 1295.77 990.63 1266.7 1014.84C1254.74 1026.56 1242.02 1037.74 1232.34 1051.51C1231.49 1052.87 1230.25 1054.33 1228.54 1053.9C1226.86 1052.62 1225.63 1051.24 1224.79 1049.76C1224.9 1052.17 1224.49 1054.58 1223.26 1056.89C1222.24 1059.46 1219.93 1060.3 1218.13 1059.29C1216.97 1060.6 1215.35 1060.98 1213.23 1059.54C1201.74 1049.61 1189.34 1040.58 1175.85 1033.55C1162.26 1026.73 1146.73 1025.04 1133.11 1018.39C1126.09 1014.84 1121.69 1007.95 1119.64 1000.51C1110.45 960.31 1115.36 973.42 1082.61 951.84C1078.39 951.05 1076.77 944.76 1077.47 939.36C1070.57 940.94 1063.83 941.7 1057.29 941.54C1054.59 941.44 1049.01 940.56 1043.59 939C1043.5 940.01 1043.35 940.9 1043.14 941.57C1042.35 946.51 1037.18 948.12 1033.87 951.12C1030.28 954.24 1026.96 957.57 1023.85 961.17C1014.05 971.4 993.4 1002.18 979.08 1001.22C958.78 995.56 976.05 952.16 979.76 938.28C982.6 929.27 985.18 920.17 987.56 911.03C988.15 908.12 989.24 906.31 990.48 905.49C977.75 897.29 965.27 888.72 953.17 879.81C910.65 847.06 871.61 801.43 847.42 751.38C846.02 753.15 842.65 752.65 841.13 753.25C816.64 759.34 807.4 773.12 802.68 797.01C797.45 822.71 796.97 850.69 797.31 876.46C798.47 881.31 794.13 891.62 789.37 884.19C784.78 872.47 787.94 858.82 787.41 846.43C787.75 835.29 788.34 824.18 789.37 813.08C792.78 778.67 801 739.85 839.5 733.5C836.23 725.38 833.38 717.17 830.97 708.91C826.37 695.03 825.69 680.54 824.3 666.15C823.31 665.67 822.23 664.87 821.07 663.69C725.52 596.15 654.27 493.55 665.6 372.22C673.6 311.4 710.85 252.49 750.79 207.07C737.59 142.59 853.82 73.38 905.02 53C949.9 34.16 999.24 26.45 1047.73 30.48C1082.17 32.67 1115.93 42.61 1133.42 74.92C1144.36 49.46 1163.31 27.33 1186.33 11.97C1196.05 6.53001 1207.84 -2.28999 1219.38 2.12001C1242.36 21.6 1209.98 55.44 1194.49 69.76C1213.42 70.55 1246.24 72.89 1238.55 100.06C1318.87 120.25 1381.28 186.98 1408.03 263.9C1411.15 276.33 1423.97 294.69 1417.4 306.56C1415.32 309.92 1411.76 308.12 1410.63 305.11C1405.86 303.79 1399.75 300.04 1394.37 296.74C1400.28 340.82 1411.06 384.34 1411.46 429.07C1412.08 450.56 1408.14 471.83 1405.32 493.05C1404.15 496.43 1402.27 517.07 1398.68 529C1399.35 533.05 1398.4 537.58 1396.18 540.62C1395.55 541.87 1394.7 543.58 1393.71 545.1C1402.01 573.9 1396.87 606.54 1379.65 631.04C1387.36 625.93 1430.44 657.02 1436.23 660.33C1448.12 669.82 1464.06 676.09 1472.17 689.39C1472.3 687.91 1472.58 686.49 1472.93 685.28C1470.77 662.6 1596.66 738.28 1611.93 742.46C1665.96 768.16 1720.09 793.76 1771.46 824.57C1811.27 848.8 1838.76 860.05 1850.87 909.32C1874.39 1010.61 1889.79 1113.63 1908.42 1215.89C1921.51 1284.89 1927.45 1355.1 1927.48 1425.3Z" fill="black"/>
<path d="M745.5 974.63C738.98 960.44 754.59 945.62 768.59 946.59C794.85 945.95 820.95 949.77 847.17 950.31C853.37 951.93 852.91 962.69 850.7 967.38C850.02 968.73 848.86 970.31 847.16 970.31C837.76 970.31 828.36 969.4 818.98 968.83C804.58 967.82 790.18 966.54 775.72 966.6C767.11 965.98 757.12 966.56 752.37 974.98C750.69 978.58 746.96 978.17 745.5 974.63Z" fill="black"/>
<path d="M861.74 1002.85C858.56 1000.35 858.59 995.71 857.18 992.19C854.57 984.01 851.59 975.54 845.76 969.07C836.93 966 841.47 939.89 851.57 952.62C859.38 962.21 869.1 984.19 868.07 996.52C867.71 999.47 865.51 1004.93 861.74 1002.85Z" fill="black"/>
<path d="M685.05 1023.72C665.94 1012.54 669.17 980.92 668.32 961.65C668.1 939.63 669.01 916.34 681.51 897.36C696.08 876 714.07 854.72 737.08 842.29C763.82 831.14 770.42 849.98 779.69 870.48C786.17 884.09 794.81 896.47 802.54 909.36C808.03 918.5 812.93 927.93 817.64 937.48C821.44 944.37 825.99 952.32 822.03 960.17C820.36 963.97 816.6 963.98 814.96 960.17C805.17 939.81 793.83 920.32 781.66 901.3C774.02 889.52 769.51 876.06 762.36 864.05C744.83 848.36 722.44 873.47 709.98 885.25C697.85 898.56 684.66 912.68 680.23 930.62C677.56 946.13 678.23 962.01 678.52 977.69C678.97 984.55 679.08 991.64 681.71 998.09C692.1 1018.29 720.56 992.16 725.47 978.77C732.97 962.85 725.11 943.81 735.3 928.68C737.63 925.8 740.66 916.91 744.88 917.75C748.86 919.71 749.18 925.32 749 929.24C748.89 934.7 744.64 938.59 742.19 943.14C737.41 949.96 739.94 958.44 739.1 966.18C738.69 972.32 737.62 978.38 735.78 984.26C730.95 1000.16 720.1 1014.63 704.99 1021.99C698.88 1025.06 691.49 1026.96 685.05 1023.72Z" fill="black"/>
<path d="M625.4 922.52C621.6 899.38 634.48 876.97 645.69 857.59C653 847.99 664.33 827.59 678.62 832.77C690.1 837.61 702.96 842.16 709.87 853.24C714.26 859.65 718.75 867.76 715.62 875.6C714.75 878.96 710.91 881.56 708.63 877.76C706.82 874 704.88 870.32 702.25 867.06C697.42 860.76 689.58 858.34 682.74 854.88C670.79 847.81 666.2 855.18 658.78 863.83C648.48 876.78 640.98 891.84 635.83 907.52C633.31 912.83 636.16 918.5 634.6 923.97C632.45 932.4 626.43 929.99 625.4 922.52Z" fill="black"/>
<path d="M1053.03 1252.91C1041.19 1251.95 1033.36 1241.57 1032.45 1230.23C1029.81 1199.68 1049.22 1172.05 1062.95 1146.36C1080 1118.27 1106.57 1077.98 1138.92 1067.66C1155.78 1062.5 1172.73 1062.18 1189.89 1059.3C1200.15 1057.59 1210.39 1055.71 1220.55 1053.52C1255.33 1044.34 1280.68 1045.23 1299.7 1079.71C1304.74 1088.89 1312.06 1098.74 1311.82 1109.56C1311.64 1112.69 1310.19 1118.52 1306.07 1117.81C1303.06 1116.59 1302.68 1112.79 1301.41 1110.19C1299.78 1106.52 1297.95 1102.96 1295.96 1099.48C1285.24 1080.15 1274.24 1068.19 1250.66 1068.35C1237.18 1069.02 1224.22 1073.27 1210.97 1075.53C1192.35 1079.47 1173.39 1081.4 1154.59 1084.09C1129.56 1087.09 1111.17 1103.59 1096.26 1122.76C1075.93 1147.4 1060.53 1175.3 1047.35 1204.13C1044.94 1211.17 1039.6 1221.06 1043.38 1228.16C1049.5 1234.69 1059.73 1233.78 1067.15 1230.09C1077.07 1224.93 1083.31 1215.05 1087.57 1205.03C1091.74 1195.63 1093.45 1184.72 1100.7 1177.01C1107.59 1169.63 1116.65 1164.79 1125.05 1159.37C1133.8 1153.91 1142.43 1148.26 1151.14 1142.74C1159.28 1137.04 1168.04 1132.39 1177.85 1130.37C1181.6 1129.35 1185.36 1128.35 1189.12 1127.35C1190.73 1126.92 1192 1127.87 1192.88 1129.15C1195.84 1134.05 1196.23 1143.91 1190.74 1147.09C1178.14 1150.24 1165.43 1153.21 1154.95 1161.3C1139.71 1171.51 1123.51 1180.31 1108.85 1191.35C1099.98 1198.17 1099.24 1210.2 1094.44 1219.63C1087.4 1236.37 1073.03 1254.46 1053.03 1252.91Z" fill="black"/>
<path d="M1109.85 1335.61C1092.82 1330.97 1090.02 1312.03 1094.02 1297.13C1097.39 1282.27 1100.54 1267.36 1103.97 1252.51C1109.27 1231.33 1122.51 1213.42 1135.71 1196.47C1145.24 1183.83 1154.33 1170.83 1164.38 1158.59C1173.52 1145.84 1187.55 1138.87 1201.93 1133.66C1226.2 1123.68 1251.13 1115.22 1276.71 1109.3C1303.78 1103.01 1333.72 1097.97 1348.14 1128.01C1352.96 1137.19 1357.38 1146.65 1363.93 1154.77C1366.54 1158.2 1370.62 1160.85 1370.91 1165.52C1371.51 1169.74 1371.27 1175.26 1367.74 1178.17C1363.72 1180.32 1359.9 1172.55 1357.41 1170.14C1350.27 1161.1 1345.59 1150.53 1340.13 1140.48C1337.14 1135.26 1332.97 1130.72 1327.5 1128.08C1298.2 1114.27 1218.52 1146.98 1188.33 1159.86C1179.8 1163.81 1173.42 1170.76 1167.63 1177.97C1158.09 1189.9 1149.35 1202.44 1140.09 1214.59C1129.8 1227.94 1119.31 1241.73 1113.9 1257.89C1109.66 1274.99 1105.84 1292.26 1102.4 1309.54C1108.4 1318.92 1121.29 1317.18 1129.85 1312.56C1138.52 1308.12 1144.76 1300.5 1149.53 1292.17C1159.16 1277.97 1157.68 1259.56 1166.97 1245.32C1185.34 1221.22 1221.73 1208.33 1249.1 1196.9C1262.14 1191.81 1275.24 1186.89 1288.37 1182.05C1289.91 1181.48 1291.32 1182.67 1292.13 1183.85C1295.14 1188.93 1295.48 1198.35 1289.99 1201.79C1252.55 1216.34 1212.65 1228.11 1180.57 1253.09C1170.46 1260.69 1168.82 1271.14 1166.31 1282.67C1164.77 1288.42 1162.77 1293.92 1160.26 1299.32C1151.61 1318.61 1133.25 1340.28 1109.85 1335.61Z" fill="black"/>
<path d="M1173.2 1383.77C1145.8 1361.77 1173.2 1324.79 1185.19 1301.34C1197.51 1281.94 1208.19 1261.53 1221.12 1242.58C1230.16 1229.27 1243.12 1219.51 1257.41 1212.42C1271.19 1204.75 1285.11 1197.36 1299.08 1190.06C1323.85 1177.86 1362.76 1155.49 1389.35 1171.55C1400.66 1177.56 1416.43 1205.97 1404.38 1215.89C1399.15 1216.48 1399.11 1209.23 1398.22 1205.83C1397.01 1202.27 1394.84 1199.13 1392.62 1196.13C1364.83 1163.97 1289.05 1218.15 1258.85 1232.35C1235.2 1242.83 1221.34 1265.36 1209.62 1286.99C1200.8 1301.91 1191.14 1316.33 1183.3 1331.82C1179.43 1339.39 1175.28 1346.88 1172.58 1354.98C1170.06 1359.68 1173.61 1363.51 1177.77 1365.62C1194.57 1371.38 1212.99 1362.66 1226.01 1352.09C1246.59 1333.89 1257.08 1307.71 1272.92 1285.77C1275.22 1281.99 1279.05 1284.56 1279.91 1287.93C1281.41 1292.4 1281.35 1297.82 1278.82 1301.91C1273.02 1310.38 1267.56 1319.09 1262.24 1327.87C1248.98 1350.8 1232.81 1374.84 1206.72 1384.03C1196.28 1387.7 1183.1 1389.77 1173.2 1383.77Z" fill="black"/>
<path d="M1238.89 1371.99C1232.64 1359.1 1241.6 1345.2 1245.84 1333.01C1254.78 1313.61 1263.24 1293.18 1277.57 1277.04C1284.95 1269.21 1294.34 1263.87 1303.47 1258.35C1320.82 1247.91 1338.38 1237.82 1355.64 1227.23C1362.18 1224.57 1362.96 1237.38 1361.66 1241.32C1359.92 1248.29 1351.12 1249.9 1345.99 1253.98C1332.34 1262.14 1318.59 1270.13 1304.97 1278.34C1295.79 1283.86 1286.33 1289.35 1279.52 1297.81C1266.06 1316.18 1256.67 1337.41 1248.51 1358.58C1269.14 1362.81 1288.24 1347.9 1301.48 1333.6C1311.15 1321.64 1323.08 1311.84 1336.99 1305.17C1355.46 1296.02 1375.99 1292.6 1395.97 1288.29C1400.91 1286.2 1403.1 1292.43 1403.24 1296.24C1403.45 1300.08 1403.08 1305.9 1399.11 1307.73C1371.19 1313.4 1341.67 1318.65 1319.2 1337.51C1304.59 1351.94 1291.67 1369.57 1271.37 1376.3C1261.12 1379.78 1245.68 1382.88 1238.89 1371.99Z" fill="black"/>
<path d="M1475.82 1284.82C1465.68 1273.93 1452.84 1266.16 1442.45 1255.57C1435.74 1248.6 1430.11 1240.61 1422.69 1234.32C1411.18 1223.41 1399.4 1227.43 1397.31 1221.97C1395.09 1216.94 1394.56 1206.91 1400.85 1204.9C1404.84 1205.43 1408.83 1206.21 1412.65 1207.5C1430.9 1214.14 1439.95 1232.88 1454.36 1244.65C1463.41 1251.7 1472.42 1258.79 1480.42 1267.05C1483.5 1270.63 1483.56 1276.13 1482.56 1280.53C1482.06 1283.55 1478.94 1287.99 1475.82 1284.82Z" fill="black"/>
<path d="M1492.06 1294.88C1487.58 1291.64 1483.22 1288.16 1478.3 1285.6C1476.35 1284.6 1473.91 1284.34 1472.65 1282.34C1469.69 1277.26 1469.26 1267.81 1474.79 1264.4C1479.68 1264.21 1497.78 1275.53 1498.07 1280.79C1499.35 1284.99 1498.77 1297.29 1492.06 1294.88Z" fill="black"/>
<path d="M873.66 1661.42C862.88 1659.32 864.2 1629.74 860.84 1620.28C858.76 1609.29 854.98 1593.55 867.24 1587.26C883.28 1578.03 900.45 1570.95 916.94 1562.56C967.47 1535.87 1019.01 1511.12 1070.31 1486.08C1142.34 1449.26 1209.72 1404.09 1280.01 1364.15C1317.54 1341.35 1354.75 1317.82 1394.1 1298.23C1393.36 1291.34 1396.43 1284.15 1404.67 1286.54C1417.43 1287.92 1419.38 1339.97 1417.23 1350.31C1413.32 1366.14 1382.56 1376.84 1369.01 1384.98C1273.97 1430.08 1183.66 1483.78 1094 1538.55C1065.41 1556.81 1034.44 1570.86 1005.39 1588.32C976.31 1605.47 947.28 1622.73 917.86 1639.28C908.49 1644.52 899.18 1649.87 889.69 1654.9C884.51 1657.32 879.46 1661.01 873.66 1661.42ZM871.77 1621.74C872.38 1625.15 872.96 1628.56 873.47 1631.99C873.94 1635.09 874.32 1638.19 874.88 1641.27C937.35 1611 994.65 1570.77 1056.67 1539.48C1154.75 1482.31 1250.45 1420.49 1353.45 1372.21C1353.41 1372.23 1353.36 1372.25 1353.32 1372.28C1353.27 1372.3 1353.23 1372.33 1353.18 1372.35C1371.71 1362.46 1391.99 1354.54 1408.18 1340.97C1407.45 1335.83 1407.66 1305.31 1401.99 1306.21C1402.33 1311.49 1400.49 1316.79 1395 1318.33C1375.76 1327.86 1357.14 1338.65 1338.65 1349.54C1309.22 1366.9 1280.36 1385.2 1250.72 1402.2C1191.2 1436.66 1133.56 1474.92 1072.06 1505.78C1004.02 1538.76 936.32 1572.56 869.1 1607.09C869.83 1611.99 870.89 1616.86 871.77 1621.74Z" fill="black"/>
<path d="M1400.11 1393.08C1393.79 1391.02 1394.38 1381.04 1396.57 1376.01C1397.29 1374.55 1398.65 1372.83 1400.49 1373.11C1410.36 1372.89 1419.72 1368.93 1428.92 1365.66C1436.42 1362.79 1443.92 1359.91 1451.27 1356.69C1457.85 1356.26 1457.79 1368.13 1456.11 1372.46C1455.02 1378.35 1431.3 1384.39 1425.05 1387.44C1417 1390.13 1408.72 1393.21 1400.11 1393.08Z" fill="black"/>
<path d="M1534.8 1555.13C1524.04 1543.27 1514.09 1530.66 1503.07 1519C1489.01 1504.05 1473.88 1490.07 1461.02 1474.03C1441.18 1449.75 1426.46 1420.27 1399.65 1402.58C1391.38 1401.97 1391.94 1371.59 1407.52 1386.85C1431.92 1405.13 1446.65 1432.15 1465.15 1455.7C1477.97 1471.69 1492.93 1485.73 1507.03 1500.56C1518.3 1512.4 1528.42 1525.27 1539.39 1537.36C1543.91 1541.05 1542.96 1560.28 1534.8 1555.13Z" fill="black"/>
<path d="M862.24 1646.89C816.83 1627.39 769.35 1613.29 723.46 1595.04C577.67 1533.39 433.57 1467.77 285.28 1412.19C218.56 1386.4 152.21 1359.71 86.46 1331.56C62.47 1321.66 37.76 1313.62 13.85 1303.49C9.76997 1301.59 5.22997 1300.22 1.94997 1297.04C-0.600029 1290.92 7.57997 1284.87 12.81 1283.37C12.21 1283.55 11.61 1283.69 11.06 1283.99C13.35 1283.1 16.37 1282.53 17.52 1284.41C42.21 1297.35 69.63 1304.46 95.24 1315.44C137.06 1332.71 178.42 1351.08 220.68 1367.29C380.39 1428.06 537.87 1494.1 694.28 1562.81C741.39 1584.28 790.63 1600.08 839.07 1618.15C846.04 1621.75 878.1 1630.49 876.83 1635.68C875.61 1641.79 868.49 1647.66 862.24 1646.89Z" fill="black"/>
<path d="M871.68 1587.87C768.78 1546.38 667.51 1500.56 562.96 1463.11C394.13 1394.81 222.66 1333.31 53.95 1264.72C46.66 1261.87 39.38 1258.97 32.01 1256.31C24.67 1253.67 17.15 1251.4 10.03 1248.2C7.57998 1247.73 7.33998 1244.52 8.42998 1242.66C10.31 1238.31 14.8 1234.84 19.3 1233.61C24.97 1233.13 29.97 1237.39 35.48 1238.53C47.88 1242.72 60.02 1247.62 72.21 1252.36C190.44 1300.62 310.03 1345.5 429.59 1390.35C529.83 1432.35 632.58 1467.88 732.61 1510.32C780.95 1531.95 830.59 1550.43 879.26 1571.2C880.91 1571.93 882.57 1572.63 884.26 1573.29C892 1577.59 876.5 1590.08 871.68 1587.87Z" fill="black"/>
<path d="M867.76 1579.52C863.92 1574.11 864.52 1564.3 870.25 1560.39C876.98 1556.98 884.07 1554.28 890.94 1551.17C908.2 1543.63 925.45 1536.06 942.34 1527.7C970.74 1514.02 998.01 1498.2 1025.98 1483.7C1044.18 1474.27 1062.7 1465.42 1080.39 1455.03C1135.8 1422.23 1192.05 1390.68 1249.18 1360.98C1256.11 1358.89 1255.91 1371.27 1254.57 1375.32C1254.07 1376.94 1253.14 1379.27 1251.49 1380.09C1214.72 1398.25 1179.6 1419.55 1143.48 1438.93C1106.58 1459.14 1071.29 1482.16 1033.24 1500.25C982.85 1527.33 932.52 1554.58 879.51 1576.28C877.24 1577.32 874.92 1578.25 872.7 1579.41C871.45 1580.97 869.11 1581.21 867.76 1579.52Z" fill="black"/>
<path d="M2.88002 1283.09C3.15002 1275.32 -3.42998 1230.96 9.50002 1234.57C13.98 1238.85 13.66 1246.57 11.66 1252.02C11.69 1260.68 12.05 1269.36 12.64 1277.21C14.46 1286.12 5.69002 1297.94 2.88002 1283.09Z" fill="black"/>
<path d="M4.76999 1246.16C-0.470005 1242.63 0.269998 1233.84 2.75 1228.74C6.71 1223.15 15.21 1223.04 21.03 1220.01C48.24 1209.22 73.86 1197.19 100.66 1186.13C126.86 1174.29 153.51 1163.57 180.68 1154.15C182.22 1153.6 183.63 1154.94 184.36 1156.11C187.14 1161.35 187.06 1170.7 181.42 1173.94C122.3 1193.81 66.97 1223.14 8.51 1244.64C7.62 1245.8 6.21999 1246.71 4.76999 1246.16Z" fill="black"/>
<path d="M65.5 1261.2C61.02 1256.65 61.6 1247.51 65.6 1242.81C74.05 1237.68 83.92 1235.05 92.91 1230.89C122.1 1218.68 151.46 1206.91 180.74 1194.93C188.81 1191.61 196.95 1188.45 205.01 1185.11C206.51 1184.49 207.99 1185.96 208.69 1187.07C211.47 1192.33 211.39 1201.6 205.75 1204.89C168.72 1219.93 131.62 1234.79 94.76 1250.21C87.12 1253.36 79.42 1256.38 71.84 1259.66C69.65 1260.34 67.76 1262.82 65.5 1261.2Z" fill="black"/>
<path d="M31.82 1884.33C19.17 1880.59 21.79 1872.32 21 1861.78C20.02 1843.59 18.89 1825.4 18.4 1807.18C18.03 1746.61 13.02 1686.19 14.38 1625.59C14 1536.23 11.45 1446.53 14.72 1357.24C15.02 1338.72 14.52 1320.16 16.03 1301.68C18.89 1295.5 29.01 1301.14 32.28 1304.56C36.51 1308.04 32.59 1322.5 33.33 1328.34C33.36 1356.4 32.51 1384.44 31.61 1412.48C31.11 1509.01 32.66 1605.56 33.06 1702.09C36.4 1757.06 35.91 1812.15 39.32 1867.13C39.65 1871.91 39.7 1876.72 40.04 1881.49C40.5 1885.77 34.3 1885.06 31.82 1884.33Z" fill="black"/>
<path d="M880.87 1885.56C868.95 1882.74 871.26 1874.71 870.81 1865C870.96 1849.97 871.25 1834.93 871.5 1819.89C873.05 1765.66 869.91 1710.62 869 1656.87C872.72 1653.6 878.62 1655.75 882.53 1657.68C886.17 1659.4 888.29 1662.99 887.97 1666.99C888.27 1674.62 888.55 1682.26 888.75 1689.89C889.75 1721.86 890.97 1753.83 890.97 1785.82C891.06 1812.72 890.31 1839.61 889.95 1866.5C889.85 1871.98 890.13 1877.45 890.41 1882.92C889.75 1887.04 883.84 1886.35 880.87 1885.56Z" fill="black"/>
<path d="M280.27 1553.53C277.21 1549.92 277.12 1544.47 278.13 1540.05C279.73 1533.67 287.64 1531.07 292.35 1527.14C300.48 1521.15 306.2 1519.52 308.2 1531.49C312.73 1531.32 317.48 1531.79 321.84 1530.4C322.68 1517.48 322.51 1506.65 320.95 1494.11C320.02 1484.53 319.44 1485.07 310.27 1483.67C301.89 1482.46 293.45 1481.26 284.97 1481.11C277.16 1481.87 277.3 1460.43 285.25 1461.13C296.48 1461.54 307.72 1462.94 318.71 1465.25C326.17 1467.23 328.47 1475.62 329.61 1482.35C332.38 1498.68 332.82 1515.31 331.76 1531.81C331.69 1539.4 329.99 1549.75 320.83 1550.83C317.07 1551.45 313.24 1551.37 309.44 1551.47C304.36 1552.17 301.23 1547.64 300.02 1543.22C294.53 1546.54 289.36 1550.39 284.15 1554.13C282.9 1555.09 281.29 1554.57 280.27 1553.53Z" fill="black"/>
<path d="M234.41 1534.4C232.92 1522.28 237.81 1521.62 246.85 1516.51C260.15 1508.83 273.41 1501.03 286.97 1493.82C292.78 1490.79 298.64 1487.79 304.79 1485.5C311.02 1482.38 313.55 1487.56 313.93 1493.03C314.08 1496.84 313.81 1501.7 310.56 1504.24C295.4 1508.17 281.98 1517.7 268.16 1525.05C259.02 1530.28 249.96 1535.64 240.74 1540.73C237.07 1543 234.83 1537.22 234.41 1534.4Z" fill="black"/>
<path d="M534.77 1664.22C525.33 1663.5 516.25 1660.56 507.45 1657.23C503.67 1656.17 500.56 1653.74 498.46 1650.43C495.6 1645.2 497.34 1635.64 502.63 1632.52C504.15 1631.91 505.43 1632.59 506.33 1633.85C507.69 1636.35 511.19 1637.73 513.38 1638.39C524.06 1642.37 535.35 1645.41 546.85 1644.67C548.01 1631.14 549.02 1617.6 550.13 1604.07C550.66 1594.7 550.85 1584.86 547.31 1576.01C544.44 1573.39 539.49 1573.85 535.84 1572.66C526.8 1570.78 517.73 1569.03 508.81 1566.64C512.44 1582.02 501.55 1587.3 490.02 1593.54C476.68 1601.08 463.74 1609.48 449.74 1615.78C444.78 1617.96 439.2 1620.49 433.84 1618.16C419.81 1614.32 406.42 1608.7 393.3 1602.48C368.67 1591.68 344.43 1579.65 318.74 1571.51C303.8 1567.14 288.7 1563.19 274.38 1557C263.44 1552.13 252.27 1547.78 240.66 1544.78C233.54 1543.01 237.45 1524.55 244.1 1525.05C259.58 1528.82 273.98 1535.66 288.71 1541.53C298.29 1544.96 308.07 1547.65 317.84 1550.47C337.3 1555.96 355.77 1564.27 374.2 1572.48C396.41 1581.8 417.72 1593.88 441.3 1599.44C450.04 1597.9 457.72 1592.66 465.55 1588.7C475.34 1583.15 484.98 1577.35 494.79 1571.85C490.52 1563.15 493.4 1548.18 504.1 1546.01C511.24 1545.43 518.13 1548.93 525.14 1550C533.26 1551.77 541.43 1553.28 549.52 1555.21C558.03 1557.69 558.41 1568.81 560.02 1576.09C562.62 1597.14 558.63 1618.29 557.5 1639.32C555.99 1657.23 556.36 1666.78 534.77 1664.22ZM245.55 1525.88C245.55 1525.87 245.56 1525.86 245.56 1525.84C245.34 1525.67 245.11 1525.5 244.89 1525.33C244.71 1525.26 244.53 1525.2 244.35 1525.13C244.82 1525.32 245.22 1525.58 245.55 1525.88Z" fill="black"/>
<path d="M434.12 1676.79C431.61 1672.72 432.51 1667.4 434.1 1663.14C436.56 1657.24 443.91 1656.33 448.82 1653.12C462.79 1645.88 476.48 1638.12 490.36 1630.71C504.06 1623.28 517.74 1615.85 531.88 1609.29C535.94 1607.41 537.11 1613.98 537.14 1616.53C537.06 1620.79 535.99 1626.2 532.04 1628.53C506.63 1640.47 482.32 1654.56 457.61 1667.84C452.66 1670.5 447.65 1673.07 442.62 1675.59C439.89 1676.52 436.48 1680.18 434.12 1676.79Z" fill="black"/>
<path d="M202.42 1570.02C202.83 1560.46 203.85 1550.93 204.68 1541.4C205.68 1534.38 205.64 1526.38 209.95 1520.42C212.79 1517.05 217.05 1515.52 220.82 1513.44C229.91 1508.8 238.97 1504.13 247.96 1499.31C261.45 1492.2 274.51 1484.23 288.35 1477.82C298.26 1473.58 296.05 1492.79 290.93 1496.13C280.87 1500.16 271.55 1505.86 261.97 1510.99C246.66 1519.57 231.01 1527.49 215.44 1535.58C214.23 1545.51 213.49 1555.51 212.76 1565.48C212.68 1568.01 212.29 1570.52 211.26 1572.87C207.8 1580.94 202.25 1577.51 202.42 1570.02ZM288.46 1496.87C288.65 1496.87 288.84 1496.87 289.02 1496.87C288.36 1496.87 287.69 1496.62 287.01 1496.14C287.24 1496.3 287.47 1496.47 287.7 1496.63C287.7 1496.63 287.7 1496.63 287.69 1496.63H287.7C287.7 1496.63 287.7 1496.63 287.71 1496.64C287.96 1496.71 288.21 1496.78 288.46 1496.87Z" fill="black"/>
<path d="M427.21 1673.29C389.64 1657.78 352.57 1641.04 314.77 1626.07C278.25 1611.97 241.53 1598.34 206.82 1580.08C204.72 1579.08 202.71 1577.83 200.52 1577.02C199.78 1576.73 199.51 1576.27 199.07 1575.66C197.27 1568.75 211.85 1562.08 217.07 1566.08C272.15 1594.98 331.67 1613.63 388.46 1638.74C406.43 1646.39 424.21 1654.51 442.37 1661.72C449.3 1667.01 432.08 1676.39 427.21 1673.29Z" fill="black"/>
<path d="M303.26 1534.47C299.94 1530.99 298.81 1525.68 299.35 1521.01C300.43 1513.12 301.74 1505.16 301.26 1497.17C298.95 1496.32 296.22 1495.9 293.8 1496.41C289.53 1496.56 287.66 1491.08 286.86 1487.64C285.95 1483.49 286.06 1475.92 292.03 1476.55C298.29 1476.18 304.6 1478.88 307.43 1484.72C312.32 1493.41 312.39 1503.77 311.72 1513.46C311.36 1518.53 310.7 1523.58 309.99 1528.62C309.88 1532.4 307.77 1538.59 303.26 1534.47Z" fill="black"/>
<path d="M532.89 1626.6C526.87 1620.44 529.31 1611.57 530.35 1604.03C530.7 1598.78 531.34 1593.36 529.98 1588.2C522.04 1585.94 513.31 1585.37 505.18 1586.94C499.07 1590.41 495.71 1577.02 496.74 1572.77C497.07 1566.28 504.78 1566.58 509.61 1566.46C518.03 1566.78 529.03 1565.92 534.61 1573.43C540.64 1582.52 541.62 1594.07 541.33 1604.72C541.09 1610.9 540.32 1616.97 539.3 1623.05C539.02 1626.55 536.09 1629.84 532.89 1626.6Z" fill="black"/>
<path d="M551.01 1793.51C493.16 1763.29 432.04 1740.05 373.94 1710.27C345.42 1696.99 315.66 1683.96 287.02 1671.5C262.65 1660.76 237.19 1652.4 213.32 1640.54C202.06 1636.25 215.33 1624.11 222.52 1624.36C225.69 1624.98 228.26 1627.93 231.43 1628.93C276 1647.89 321.08 1665.65 365.04 1686.05C404.48 1703.65 442.63 1724.02 482.36 1741.02C510.82 1752.84 538.28 1765.53 565.39 1779.98C570.95 1785.41 556.29 1796.57 551.01 1793.51Z" fill="black"/>
<path d="M554.71 1925.16C551.01 1923.6 546.19 1920.76 546.12 1916.26C547.5 1895.22 547.82 1874.11 548.91 1853.05C549.95 1831.7 550.03 1810.31 550.68 1788.96C551.2 1786.56 549.93 1783.71 551.52 1781.69C557.12 1778.4 565.27 1782.9 568.51 1787.85C570.26 1793.3 568.43 1799.39 568.79 1805.06C568.48 1831.63 567.44 1858.18 566.24 1884.72C565.66 1897.7 565.47 1910.7 564.49 1923.65C563.35 1927.66 557.56 1926.28 554.71 1925.16Z" fill="black"/>
<path d="M211.65 1843.4C207.57 1842.11 202.37 1839.35 201.44 1834.81C201.2 1803.18 200.34 1771.55 200.83 1739.92C201.88 1707.69 203.06 1675.47 202.72 1643.23C202.67 1640.79 202.79 1638.38 202.64 1635.93C201.34 1632.83 205.05 1631.11 207.63 1631.58C213.42 1632.2 221.1 1636.01 221.05 1642.67C221.17 1651.15 221.11 1659.62 221.14 1668.1C221.01 1691.84 220.34 1715.59 219.4 1739.32C218.6 1767.69 219.35 1794.85 219.62 1823.04C219.69 1828.85 219.76 1834.66 219.83 1840.48C219.99 1844.66 214.39 1844.36 211.65 1843.4Z" fill="black"/>
<path d="M268.81 1878.86C247.69 1866.62 226.14 1855.21 204.2 1844.49C195.75 1840.03 212.22 1827.02 217.69 1830.6C239.95 1841.59 262 1853.11 283.48 1865.62C288.81 1871.12 274.13 1882.08 268.81 1878.86Z" fill="black"/>
<path d="M489.28 1851.53C450.99 1834.74 413.98 1815.26 376.16 1797.48C338.29 1779.61 299.18 1764.58 261.02 1747.4C256.9 1746.15 259.88 1740.59 261.5 1738.49C264.19 1735.21 268.42 1731.58 272.95 1732.24C331.47 1757.5 390.52 1781.67 447.21 1810.97C465.53 1819.98 484.05 1828.65 502.7 1836.96C504.19 1837.62 504.22 1839.62 503.93 1840.95C502.31 1846.53 495.42 1853.28 489.28 1851.53Z" fill="black"/>
<path d="M1391.19 1880.02C1383.7 1878.51 1378.96 1873.39 1380.08 1865.56C1380.04 1857.39 1380.22 1849.21 1380.4 1841.04C1381.11 1808.33 1383.11 1775.69 1384.42 1743C1386.54 1633.82 1391.27 1524.73 1393.81 1415.56C1394.21 1399.15 1394.35 1382.73 1394.66 1366.31C1394.68 1364.96 1395.96 1364.1 1397.09 1363.72C1403.09 1362.28 1412.34 1366.03 1413.46 1372.51C1413.17 1393.36 1412.86 1414.22 1412.29 1435.06C1408.23 1574.31 1404.25 1713.55 1399.09 1852.76C1398.79 1861.1 1398.77 1869.68 1399.2 1877.84C1398.01 1880.92 1393.84 1880.59 1391.19 1880.02Z" fill="black"/>
<path d="M1895.65 1808.85C1887.95 1783.71 1882.66 1757.78 1873.99 1732.97C1862.55 1722.41 1873.31 1697.7 1882.71 1724.77C1891.1 1750.03 1896.82 1776.13 1904.48 1801.63C1907.57 1810.07 1900.6 1823.21 1895.65 1808.85Z" fill="black"/>
<path d="M1578.96 667.67C1573.84 664.26 1573.58 650.1 1572.25 644.06C1570.31 620.16 1572.72 596.46 1571.55 572.55C1571.75 564.58 1568.15 476.03 1583.53 491.36C1587.42 498.18 1583.05 505.57 1582.73 512.66C1579.65 550.09 1582.93 587.65 1581.47 625.14C1581.27 633.4 1582.26 641.66 1584.1 649.71C1586.05 654.74 1586.52 668.09 1578.96 667.67Z" fill="black"/>
<path d="M1581.5 672.72C1575.68 660.41 1585.49 653.33 1593.5 645.76C1605.19 634.53 1617.63 624.11 1630.61 614.4C1705.04 562 1786.26 515.26 1871.31 482.59C1878.89 482.21 1877.7 500.61 1871.71 502.39C1819.32 522.09 1769.46 547.53 1721.62 576.52C1682.9 599.08 1644.1 622.26 1610.14 651.71C1602.26 658.68 1594.53 665.86 1587.17 673.37C1585.61 675.47 1582.62 675.11 1581.5 672.72Z" fill="black"/>
<path d="M1577.76 508.53C1572.64 498.57 1580.39 488.73 1586.43 481.23C1596.81 468.11 1607.5 455.22 1618.94 443.01C1664.99 396.88 1720.74 360.72 1778.62 331.19C1785.87 328.17 1825.21 306.11 1828.04 313.53C1830.75 318.76 1830.48 328.22 1824.8 331.3C1818.31 333.28 1811.96 335.7 1805.7 338.3C1737.33 370.05 1671.29 410.67 1618.64 465.1C1607.44 477.86 1596.26 490.73 1586.26 504.47C1584.57 507.71 1581.24 513.98 1577.76 508.53Z" fill="black"/>
<path d="M1872.81 494.17C1868.1 491.93 1864.88 467.58 1862.48 461.24C1853.98 430.99 1845.43 400.76 1837.32 370.4C1833.38 355.29 1828.91 340.24 1822.2 326.1C1819.35 321.54 1822.52 303.2 1829.62 311.28C1838.78 330.35 1844.08 350.97 1849.35 371.4C1856.89 399.73 1865.4 427.79 1872.83 456.14C1874.52 466.21 1879.61 476.03 1879.05 486.29C1878.61 489.48 1876.91 495.09 1872.81 494.17Z" fill="black"/>
<path d="M991.09 1072.14C942.93 1050.69 894.04 1030.65 844.08 1013.77C807.92 1001.11 770.97 990.8 734.7 978.52C727.19 973.91 742.94 962.61 748.11 964.96C829.31 990.44 910.49 1016.4 988.25 1051.35C993.66 1053.76 999.08 1056.17 1004.5 1058.58C1005.69 1059.11 1006.45 1059.88 1006.49 1061.25C1005.87 1067.45 997.08 1073.4 991.09 1072.14Z" fill="black"/>
<path d="M935.54 1266.09C934.91 1263.62 935.23 1260.64 936.06 1258.25C941.05 1243.93 945.88 1231.13 950.43 1217.72C965.8 1174.92 980.83 1131.93 990.69 1087.46C993.39 1078.04 994.19 1067.59 999.22 1059.07C1001.26 1055.97 1005.62 1054.62 1006.67 1059.51C1007.87 1064.58 1005.23 1069.45 1004.19 1074.32C1001.63 1084.49 999.32 1094.72 996.78 1104.89C987.2 1144.98 973.12 1183.74 959.34 1222.52C954.88 1235.53 949.86 1249.02 945.49 1261.48C944.61 1265.87 937.9 1273.96 935.54 1266.09Z" fill="black"/>
<path d="M151.35 1105.38C150.25 1099.8 152.54 1091.94 157.98 1089.43C166.99 1089.16 176.06 1089.11 185.09 1088.38C284.95 1076.76 382.62 1050.66 480.46 1028.17C511.14 1020.66 541.92 1013.6 572.62 1006.16C581.26 1005.71 575.66 1024.05 570.12 1025.24C464.52 1050.24 359.25 1076.93 252.57 1097.06C222.6 1102.66 192.39 1108.13 161.82 1108.62C158.14 1108.27 152.27 1110.39 151.35 1105.38Z" fill="black"/>
<path d="M222.2 1096.77C216.18 1076.67 210.7 1056.39 206.32 1035.87C204.3 1021.79 194.14 994.15 199.87 982.06C201.07 979.26 204.94 974.62 207.89 978.01C209.94 981.58 209.01 986.37 210.12 990.35C216.12 1021.92 223.47 1053.26 232.81 1084.02C235.27 1089.26 226.77 1107.55 222.2 1096.77Z" fill="black"/>
<path d="M192.69 994.61C188.58 989.9 191.57 981.86 195.12 977.59C198.95 973.86 205.02 974.97 209.91 974.01C215.98 973.31 222 972.4 228.03 971.45C270.95 964.09 313.59 955.16 356.26 946.51C433.05 930.46 510.46 917.58 587.23 901.47C594.37 900.97 591.23 913.25 588.9 916.7C588 918.16 586.55 920.15 584.74 920.55C564.08 925.19 543.24 928.92 522.45 932.92C479.84 941.16 437.13 948.94 394.57 957.4C327.48 969.76 260.14 987.43 192.69 994.61Z" fill="black"/>
<path d="M804.65 1543.12C800.29 1542.61 795.02 1540.75 793.08 1536.48C789.41 1526.97 786.17 1517.31 782.53 1507.78C766.66 1467.09 753.55 1425.39 739.08 1384.19C693.98 1255.44 640.58 1127.52 563.79 1014.26C555.7 1004.57 573.62 1005.46 578.12 1009.99C580.7 1012 582.25 1015.23 584.42 1017.7C673.14 1151.15 730.83 1302.32 781.15 1453.69C788.19 1474.41 795.77 1494.94 803.63 1515.36C806.55 1523.15 809.1 1531.07 812.19 1538.8C813.15 1542.79 807.58 1543.6 804.65 1543.12Z" fill="black"/>
<path d="M715.07 1186.37C704.28 1182.88 697.98 1157.62 692.54 1147.49C687.48 1135.85 682.18 1124.54 676.83 1113.05C645.97 1046.31 619.69 976.2 575.94 916.49C568.47 904.92 592.26 908.7 593.72 916.18C637.94 976.6 664.9 1048.17 696.01 1115.46C704.96 1134.27 713.06 1153.08 721.29 1172.11C722.61 1175.15 724.1 1178.13 726.08 1180.81C726.91 1182.04 728.06 1183.31 727.6 1184.91C725.34 1189.19 718.8 1187.65 715.07 1186.37Z" fill="black"/>
<path d="M683.76 1199C675.03 1195.77 674.29 1188.42 685.07 1189.09C695.74 1188.47 706.4 1187.39 716.93 1185.56C723.14 1184.86 729.23 1181.61 735.52 1182.83C739.4 1183.74 744.76 1185.64 745.55 1190.06C746.55 1195.02 720.38 1197.25 716 1198.19C705.38 1198.77 694.17 1202 683.76 1199Z" fill="black"/>
<path d="M695.84 1239.83C688.22 1231.57 705.1 1232.79 709.52 1231.2C720.88 1229.15 732.24 1227.08 743.6 1224.98C748.1 1224.14 753.13 1225.26 756.83 1228.02C760.12 1230.04 761.14 1234.54 756.46 1235.47C744.24 1237.71 732 1239.93 719.77 1242.16C711.89 1243.67 702.32 1246.02 695.84 1239.83Z" fill="black"/>
<path d="M888.59 1550.15C884.26 1549.61 878.89 1547.8 877.01 1543.51C874.42 1535.74 872.41 1527.8 869.83 1520.02C859.49 1490.46 849.55 1459.62 836.65 1431.25C810.12 1372.67 781.36 1315.11 756.64 1255.72C752.83 1247.1 749.24 1238.32 744.61 1230.11C743.74 1229.13 742.9 1227.74 743.41 1226.53C747.05 1220.76 758.54 1224.72 761.94 1229.21C781.51 1267.15 796.08 1307.64 814.88 1346.03C837.64 1394.49 862.22 1442.36 878.85 1493.39C885.12 1510.71 890.9 1528.17 896.12 1545.82C897.4 1549.85 891.53 1550.39 888.59 1550.15Z" fill="black"/>
<path d="M744.29 1228.52C740.02 1227.93 734.47 1226.21 732.72 1221.88C730.55 1211.51 727.74 1201.29 725.55 1190.93C722.29 1179.71 746.22 1185.23 744.64 1193.21C746.76 1203.6 749.72 1213.81 751.82 1224.21C752.68 1228.31 747.37 1228.8 744.29 1228.52Z" fill="black"/>
<path d="M204.93 1094.05C192.38 1088.72 191.37 1072.83 186.72 1061.64C177.72 1034.98 167.51 1008.74 157.5 982.45C144.82 948.95 129.75 916.37 117.56 882.71C117.08 881.28 116.85 879.31 118.04 878.14C119.25 876.96 121.18 877.28 122.62 877.77C131.6 880.89 133.29 890.79 136.33 898.6C159.09 953.96 181.94 1009.33 201.36 1065.97C203.37 1071.97 205.28 1078 207.5 1083.93C211.18 1087.33 212.56 1096.65 204.93 1094.05Z" fill="black"/>
<path d="M121.4 892.12C119.11 891.17 118.5 888.44 118.52 886.16C117.95 871.32 134.6 868.15 145 862.41C174.74 848.48 205.17 836 236.02 824.76C334.46 789.28 436.29 758.76 540.53 747.09C548.16 748.54 542.95 765.93 536.83 766.55C479.08 771.56 422.52 786.7 366.54 801.22C282.61 824.27 199.02 853.71 121.4 892.12ZM127.64 873.37C127.6 873.32 127.56 873.27 127.53 873.23C127.39 873.17 127.26 873.1 127.12 873.04C127.31 873.13 127.48 873.25 127.64 873.37Z" fill="black"/>
<path d="M865.1 1460.17C849.24 1454.89 841.42 1384.77 833.24 1366.7C821.63 1336.99 807.92 1308.11 795.33 1278.8C746.16 1171.62 700.19 1064.12 646.33 959.3C613.79 892.94 583.42 824.27 539.34 764.59C534.35 761.71 528.28 745.07 539.04 749.72C545.53 754.61 550.06 761.65 554.8 768.16C592.12 823.91 621.98 884.27 650.55 944.85C688.91 1020.6 724.97 1097.62 759.96 1174.96C778.8 1220.2 800.54 1264.04 819.7 1308.88C836.1 1344.06 851.34 1379.77 858.24 1418.19C859.57 1423.94 860.84 1429.73 862.73 1435.33C863.84 1441.94 874.68 1460.68 865.1 1460.17Z" fill="black"/>
<path d="M280.53 1335.77C266.8 1334.03 262.9 1314.19 256.74 1303.75C252.16 1294.09 247.63 1284.42 243.05 1274.76C229.41 1246.52 215.61 1218.33 201.02 1190.57C183.96 1160.05 164.12 1131.17 144.63 1102.18C137.59 1091.21 156.39 1093.53 163.16 1107.3C173.74 1122.34 183.19 1138.14 193.57 1153.32C217.73 1189.27 235.66 1228.81 254.91 1267.48C263.89 1285.81 272.18 1304.49 281.22 1322.8C283.2 1327.29 290.81 1336.77 280.53 1335.77Z" fill="black"/>
<path d="M153.9 1094.57C147.39 1080.59 141.98 1066.08 136.56 1051.65C133.92 1043.73 131.33 1033.53 137.11 1026.41C141.01 1023.22 146.34 1022.51 150.97 1020.77C157.7 1019.31 178.07 1012.19 183.23 1015.01C187.86 1019.12 187.72 1028.73 183.95 1033.38C183 1034.35 181.69 1034.8 180.47 1034.22C168.39 1035.51 157.17 1039.18 145.65 1042.75C149.58 1053.14 153.83 1063.43 157.91 1073.76C159.7 1078.25 162.71 1082.46 162.44 1087.49C163.01 1092.46 158.32 1102.56 153.9 1094.57Z" fill="black"/>
<path d="M254.07 748.38C254.25 742.57 257.16 737.09 263.42 736.51C272.74 733.77 282.09 731.15 291.47 728.58C364.71 708.04 439.8 694.48 515.7 689.19C561.71 686.47 608.51 682.39 654.31 688.9C661.04 691.1 658.23 708.52 651.51 708.7C626.75 704.15 601.32 705.84 576.26 705.65C474.14 708.17 372.61 723.88 274.6 752.72C271.6 756.1 264.93 754.76 260.72 756.73C255.2 759.66 253.69 752.31 254.07 748.38Z" fill="black"/>
<path d="M623.35 886.77C623.23 844.02 627.96 801.24 634.76 759.07C638.9 738.26 640.86 718.74 647.07 698.8C652.95 689.27 656.81 701.33 655.02 707.24C647.22 742.23 641.13 777.21 637.63 812.76C635.64 835.74 633.1 858.74 633.63 881.84C634.66 890.63 624.79 901.99 623.35 886.77Z" fill="black"/>
<path d="M225.36 847.62C216.98 845.82 225.76 813.09 226.27 805.8C229.6 789.11 233.63 772.34 240.45 756.7C243.25 752.07 245.34 743.3 251.24 742.26C255.33 743.49 255.17 749.39 254.79 752.86C254.33 758.42 249.87 762.18 247.89 767.18C241.7 781.33 238.44 796.56 235.34 811.64C232.8 818.96 233.96 848.15 225.36 847.62Z" fill="black"/>
<path d="M1034.61 1111.6C1024.75 1105.21 1014.55 1099.29 1003.8 1094.52C1001.05 1093.12 997.99 1092.37 995.14 1091.29C990.46 1086.33 999.9 1073.36 1006.07 1074.67C1020.46 1079.25 1033.56 1087.32 1046.26 1095.35C1047.47 1096.13 1047.61 1097.87 1047.51 1099.14C1046.94 1104.48 1040.74 1113.85 1034.61 1111.6Z" fill="black"/>
<path d="M962.26 1273.45C961.55 1271.33 962.46 1268.88 963.3 1266.95C971.44 1248.34 980.34 1230.07 988.85 1211.63C995.83 1196.08 1002.36 1184.14 1009.98 1169.9C1019.61 1151.01 1029.42 1132.17 1037.86 1112.72C1040.12 1107.21 1040.91 1100.83 1046 1097.03C1048.26 1094.72 1053.62 1093.15 1054.01 1097.81C1052.63 1109.39 1045.84 1119.91 1041.3 1130.54C1032.17 1149.51 1022.53 1168.22 1012.55 1186.76C1002.45 1206.35 993.59 1226.55 984.17 1246.48C979.63 1254.88 977.36 1264.85 971.15 1272.19C969.08 1274.46 964.01 1277.61 962.26 1273.45Z" fill="black"/>
<path d="M1048.91 1139.56C1045.25 1137.19 1041.32 1135.46 1037.16 1134.48C1032.46 1129.27 1042.08 1116.72 1048.03 1117.76C1052.59 1118.48 1056.64 1121.02 1060.57 1123.31C1061.79 1124.04 1061.91 1125.87 1061.82 1127.1C1061.22 1132.45 1055.08 1141.79 1048.91 1139.56Z" fill="black"/>
<path d="M971.58 1279.71C966.72 1278.9 969.12 1272.46 970.78 1269.67C975.46 1260.92 980.21 1252.21 985.05 1243.56C993.71 1228.32 1002.69 1213.23 1012.45 1198.67C1023.21 1182.56 1034.49 1166.81 1046.12 1151.33C1049.4 1147.54 1071.28 1115.32 1072.48 1131.35C1070.94 1140.27 1062.17 1145.56 1057.51 1152.88C1040.19 1175.76 1023.35 1199.07 1008.48 1223.62C1003.02 1232.67 997.67 1241.76 992.55 1251.01C987.47 1258.25 980.48 1279.62 971.58 1279.71Z" fill="black"/>
<path d="M1060.01 1142.3C1050.84 1139.12 1062.79 1121.48 1069.58 1124.71C1077.1 1128.61 1066.51 1143.8 1060.01 1142.3Z" fill="black"/>
<path d="M1113.46 1349.16C1047.09 1306.1 970.87 1280.72 894.43 1262.15C889.63 1260.82 884.52 1260.17 879.77 1259.01C876.46 1256.17 880.35 1251.59 882.62 1249.35C886.01 1246.05 890.88 1243.93 895.58 1245.3C956.6 1258.72 1016.64 1278.15 1073.21 1304.77C1092.22 1313.54 1110.07 1324.53 1127.81 1335.59C1133.55 1340.62 1118.55 1352.46 1113.46 1349.16Z" fill="black"/>
<path d="M1054.57 1475.08C1053.18 1474.19 1053.06 1472.39 1053.58 1470.96C1055.24 1466.38 1056.85 1461.77 1058.36 1457.14C1062.72 1441.15 1070.88 1426.77 1080.14 1413.16C1093.54 1392.58 1104.33 1370.44 1117.75 1349.88C1118.47 1344.62 1133.84 1334.04 1134.35 1343.46C1132.98 1348.96 1129.05 1353.45 1126.16 1358.23C1123.28 1362.67 1120.62 1367.23 1118.06 1371.86C1107.35 1392.13 1094.72 1411.25 1082.91 1430.87C1077.04 1441.83 1074.39 1454.09 1069.92 1465.63C1067.86 1470.98 1060.5 1477.28 1054.57 1475.08Z" fill="black"/>
<path d="M892.44 1140.14C869.16 1133.32 845.14 1129.42 821.3 1125.07C787.97 1119.46 754.95 1111.07 721.47 1106.86C716.18 1102.77 721.89 1090.77 727.05 1088.66C732.41 1087.69 737.93 1089.68 743.28 1090.31C780.39 1097.06 817.32 1104.73 854.48 1111.23C869.96 1114.23 885.43 1117.38 900.57 1121.86C901.91 1122.26 902.41 1124.15 902.56 1125.32C903.11 1130.71 898.9 1141.04 892.44 1140.14Z" fill="black"/>
<path d="M865.18 1472.51C860.61 1465.6 863.08 1451.36 862.34 1443C860.24 1421.03 862.81 1399.05 862.7 1377.05C864.16 1346.65 864.08 1316.12 867.72 1285.86C873.01 1230.86 886.07 1176.91 892.17 1122.12C893.02 1119.18 896.02 1114.29 899.44 1116.89C902.74 1120.65 901.33 1126.27 901.12 1130.82C898.24 1161.11 891.6 1190.87 886.68 1220.87C880.2 1261.17 874.91 1301.78 874.32 1342.65C873.3 1370.21 872.07 1397.81 871.94 1425.38C872.78 1434.68 872.83 1444 872.79 1453.32C873.09 1457.98 874.28 1462.78 872.46 1467.29C871.6 1470.2 868.6 1475.13 865.18 1472.51Z" fill="black"/>
<path d="M931.84 1176.22C922.33 1172.23 912.17 1169.93 902.3 1167.02C898.1 1165.59 890.96 1165.2 891.85 1159.13C891.58 1154.39 898.76 1141.8 904.03 1146.91C913.44 1149.94 923.02 1152.16 932.4 1155.28C935.91 1156.9 942.36 1156.91 942.54 1161.84C942.84 1167.17 938.25 1177.47 931.84 1176.22Z" fill="black"/>
<path d="M909.93 1266.26C908.54 1264.84 908.63 1262.24 908.98 1260.45C912.99 1239.55 918 1218.82 925.95 1199.04C930.15 1188.98 933.02 1178.4 937.29 1168.4C938.77 1164.13 946.97 1156.9 948.05 1165.18C948.25 1167.6 947.51 1170.04 946.53 1172.24C943.9 1179.13 941.78 1186.2 939.09 1193.07C933.37 1207.42 928.26 1221.99 924.99 1237.11C922.69 1245.14 922.64 1253.98 918.79 1261.47C917.13 1264.22 913.36 1268.88 909.93 1266.26Z" fill="black"/>
<path d="M1009.8 1399.18C972.11 1379.88 933.61 1362.11 894.02 1347.06C888.19 1344.18 876.89 1341.54 873.31 1336.44C872.65 1330.03 878.84 1323.4 884.92 1322.19C886.22 1321.98 887.15 1322.68 888.12 1323.34C892.38 1325.88 897.09 1327.65 901.67 1329.5C916.65 1335.57 931.75 1341.33 946.66 1347.57C971.94 1358.83 996.99 1370.73 1021.63 1383.31C1027.85 1387.7 1015.49 1401.52 1009.8 1399.18Z" fill="black"/>
<path d="M952.99 1515.89C951.41 1512.42 954.27 1508.74 955.49 1505.59C959.44 1497.07 963.21 1488.47 966.66 1479.73C973.71 1462.12 980.76 1444.46 989.61 1427.66C996.17 1414.85 1004.45 1402.91 1009.7 1389.53C1011.67 1385.69 1021.28 1377.57 1022.95 1385.16C1021.23 1396.54 1013.19 1406 1008.09 1416.09C1002.76 1425.65 997.82 1435.39 993.3 1445.35C986.22 1461.32 980.28 1477.79 973.17 1493.74C969.72 1500.31 968 1508.08 962.76 1513.51C960.43 1515.71 955.7 1519.17 952.99 1515.89Z" fill="black"/>
<path d="M1042.67 1376.7C989.75 1348.09 934.14 1324.99 878.09 1303.35C871.61 1300.7 879.35 1291.05 882.99 1288.81C885.36 1287.04 888.44 1286.38 891.09 1287.94C894.7 1289.38 898.31 1290.83 901.93 1292.26C945.82 1309.1 989.18 1327.44 1031.15 1348.66C1039.01 1352.59 1046.73 1356.75 1054.51 1360.82C1058.28 1362.79 1055.06 1368.54 1053.37 1370.8C1050.94 1373.86 1046.94 1377.89 1042.67 1376.7Z" fill="black"/>
<path d="M967.26 1520.61C966.33 1519.07 966.91 1517.05 967.46 1515.5C974.16 1495.57 984.35 1477.17 993.32 1458.24C1009.3 1426.31 1026.24 1394.92 1045.13 1364.9C1047.54 1362.27 1051.84 1358.49 1055.49 1360.71C1057.74 1363.2 1055.76 1366.99 1054.27 1369.39C1042.45 1389.27 1030.96 1409.31 1020.27 1429.79C1009.42 1449.17 1000.25 1469.4 990.39 1489.28C987.11 1496.73 984.07 1504.32 981.33 1511.98C980.49 1514.34 978.81 1516.5 977.03 1518.22C974.69 1520.46 969.98 1523.87 967.26 1520.61Z" fill="black"/>
<path d="M1075.45 1361.07C1057.75 1350.37 1039.34 1340.85 1020.2 1332.99C976.45 1314.88 931.57 1298.7 885.04 1289.49C877.1 1286.6 889.65 1271.75 895.22 1273.16C962 1287.8 1028.09 1310.7 1087.29 1345.19C1093.49 1349.67 1081.12 1363.39 1075.45 1361.07Z" fill="black"/>
<path d="M1004.17 1504.41C1003.25 1502.88 1003.81 1500.84 1004.37 1499.3C1007.68 1490.24 1011.26 1481.29 1015.07 1472.43C1026.63 1444.13 1040.72 1414.56 1056.47 1389.43C1061.96 1379.78 1066.61 1371.17 1071.62 1361.46C1074.06 1356.58 1076.25 1351.13 1081.03 1348.05C1086.99 1343.85 1091.19 1347.37 1087.64 1354.02C1077.16 1375 1065.33 1395.22 1053.66 1415.53C1042.29 1435.36 1034.45 1456.93 1025.21 1477.79C1021.14 1485.63 1020.17 1495.59 1013.94 1502.02C1011.59 1504.25 1006.89 1507.67 1004.17 1504.41Z" fill="black"/>
<path d="M948.87 1527.11C947.96 1525.59 948.49 1523.52 949.07 1522C951.7 1514.88 954.58 1506.52 962.08 1503.27C963.49 1502.71 965.4 1502.29 966.67 1503.41C969.94 1507.57 963.76 1513.91 962.93 1518.48C961.29 1522.87 953.61 1531.72 948.87 1527.11Z" fill="black"/>
<path d="M1082.71 1295.81C1064.28 1286.7 1045.66 1277.97 1026.84 1269.69C1014.38 1264.5 1001.52 1260.32 988.71 1256.08C986.53 1255.51 983.6 1255.27 983.77 1252.32C984.07 1247.6 987.79 1243.61 991.59 1241.13C997.97 1237.01 1005.22 1242.93 1011.71 1244.26C1040.68 1253.51 1067.92 1267.27 1095.23 1280.48C1101.09 1285.37 1088.55 1298.19 1082.71 1295.81Z" fill="black"/>
<path d="M1095.73 1449.12C1095.28 1447.22 1096.22 1445.24 1097.07 1443.61C1101.66 1434.72 1106.45 1425.93 1111.29 1417.18C1122.36 1397.74 1134.44 1378.87 1144.74 1359C1147.81 1351.97 1152.27 1344.99 1152.86 1337.22C1149.99 1333.33 1144.29 1331.56 1140.3 1328.7C1135.14 1324.64 1143.71 1315.79 1147.76 1313.98C1149.15 1313.31 1151.33 1312.51 1152.83 1313.37C1156.8 1315.65 1160.72 1318.08 1164.57 1320.56C1167.02 1321.87 1168.4 1324.44 1168.47 1327.18C1168.16 1339.17 1161.49 1350.05 1156.43 1360.62C1148.98 1374.63 1140.82 1388.26 1132.73 1401.91C1127.44 1410.7 1122.44 1419.62 1117.56 1428.65C1113.27 1435.36 1111.18 1443.98 1104.68 1448.95C1102.34 1450.86 1097.03 1453.23 1095.73 1449.12Z" fill="black"/>
<path d="M1142.63 1422.68C1142.19 1420.78 1143.12 1418.8 1143.97 1417.17C1150.21 1405.18 1156.98 1393.46 1163.1 1381.41C1164.72 1377.15 1167.35 1373.4 1171.26 1370.98C1178.58 1366.51 1181.13 1372 1177.21 1378.31C1174.36 1384.09 1171.26 1389.74 1168.17 1395.39C1164.29 1402.46 1160.46 1409.57 1156.74 1416.72C1155.56 1418.99 1153.61 1421.01 1151.58 1422.51C1149.26 1424.39 1143.93 1426.81 1142.63 1422.68Z" fill="black"/>
<path d="M1092.25 1258.65C1085.47 1253.57 1078.56 1248.65 1072.2 1243.04C1068.84 1237.64 1076.68 1230.11 1081.51 1228.3C1083.02 1227.78 1084.79 1227.53 1086.09 1228.65C1089.06 1231.2 1092.05 1233.69 1095.17 1236.06C1098.8 1238.83 1102.49 1241.51 1106.14 1244.25C1110.3 1249.62 1097.92 1262.52 1092.25 1258.65Z" fill="black"/>
<path d="M1179.01 1301.43C1173.08 1297.88 1167.03 1294.52 1160.83 1291.46C1157.38 1289.15 1151.26 1289.48 1153.37 1283.73C1155.29 1278.54 1160.53 1272.79 1166.48 1273.17C1175.27 1276.39 1183.42 1281.43 1191.54 1286.1C1197.57 1290.69 1184.63 1304.03 1179.01 1301.43Z" fill="black"/>
<path d="M1031.31 1223.39C1025.11 1220.69 1018.96 1217.82 1012.86 1214.97C1012.37 1214.63 1011.77 1214.34 1011.54 1213.73C1009.66 1207.54 1018.32 1198.74 1024.42 1199.26C1030.93 1202.03 1037.29 1205.31 1043.84 1208.06C1045.34 1208.72 1045.53 1210.55 1045.3 1211.97C1043.89 1217.7 1037.7 1224.75 1031.31 1223.39Z" fill="black"/>
<path d="M1097.89 1260.71C1092.69 1255.74 1105.89 1241.98 1111.44 1246.06C1116.65 1251 1103.5 1264.75 1097.89 1260.71Z" fill="black"/>
<path d="M1207.04 1244.67C1203.62 1243.76 1200.21 1242.68 1196.7 1242.2C1192.4 1242.67 1192.09 1238.14 1194.11 1235.41C1200.17 1225.19 1210.13 1226.95 1219.76 1230.24C1227.02 1234.69 1212.59 1246.68 1207.04 1244.67Z" fill="black"/>
<path d="M1215.22 1244.33C1212.74 1242.99 1210.05 1241.9 1207.9 1240.05C1204.06 1234.21 1218.37 1222.76 1223.36 1227.29C1226.04 1229.44 1232.16 1230.04 1230.48 1234.66C1228.37 1240.2 1221.44 1246.38 1215.22 1244.33Z" fill="black"/>
<path d="M1211.53 1247.64C1209.03 1245.72 1203.66 1245.33 1204.04 1241.37C1205.45 1235.31 1212.38 1229.5 1218.74 1230.32C1221.19 1231.22 1223.42 1232.83 1225.81 1233.91C1227.26 1234.65 1227.17 1236.68 1226.79 1237.97C1224.68 1243.51 1217.75 1249.68 1211.53 1247.64Z" fill="black"/>
<path d="M1135.54 1205.45C1127 1201.76 1118.29 1198.47 1109.5 1195.39C1098.22 1193.33 1115.82 1175.92 1123.37 1181.38C1131.77 1184.32 1140.1 1187.46 1148.26 1191C1149.74 1191.66 1150.42 1192.73 1150.24 1194.39C1148.83 1200.4 1141.88 1206.39 1135.54 1205.45Z" fill="black"/>
<path d="M1040.41 1167.01C1040.2 1165.12 1041.33 1163.16 1042.4 1161.7C1045.07 1158.04 1049.54 1154.84 1054.2 1154.84C1055.73 1154.84 1056.96 1155.98 1057.12 1157.46C1057.33 1159.35 1056.2 1161.31 1055.13 1162.77C1052.46 1166.43 1047.99 1169.63 1043.33 1169.63C1041.8 1169.63 1040.57 1168.49 1040.41 1167.01Z" fill="black"/>
<path d="M808.94 358.22C806.83 356.73 805.11 354.61 803.85 352.36C802.71 350.32 801.67 347.77 801.96 345.37C802.15 343.77 803.11 342.34 804.86 342.34C806.34 342.34 807.74 343.08 808.91 343.91C811.02 345.4 812.74 347.52 814 349.77C815.14 351.81 816.18 354.36 815.89 356.76C815.7 358.36 814.74 359.79 812.99 359.79C811.52 359.79 810.12 359.05 808.94 358.22Z" fill="black"/>
<path d="M190.63 580.47C177.8 575.89 177.46 551.51 171.92 540.02C168.02 527.99 164.03 516.01 159.47 504.22C126.03 423.45 83.47 343.02 17.48 284.15C7.48999 277.23 7.86999 259.83 22.02 273.4C86.27 331.92 129.65 409.03 164.29 487.84C172.98 508.09 180.26 528.91 186.83 549.93C187.42 555.75 200.44 581.67 190.63 580.47Z" fill="black"/>
<path d="M335.98 322.67C233.54 297.56 128.83 277.83 22.9 281.19C19.04 280.6 13.28 283.19 10.25 280.95C7.20002 274.3 13.93 264.3 21.08 263.82C107.07 260.04 193.21 271.21 277.15 289.34C299.75 294.35 322.18 300.04 344.8 304.94C351.7 308.7 342.2 323.52 335.98 322.67Z" fill="black"/>
<path d="M492.12 636.24C487.19 634.59 485.16 628.77 484.2 624.11C480.84 612.1 476.66 600.31 472.76 588.47C437.41 492.63 398.94 395.36 332.67 316.25C327.92 310.48 329.75 294.84 338.52 305.88C395.48 373.09 431.23 454.39 463.55 535.52C473.74 560.7 482.94 586.28 491.12 612.18C492.26 617.77 501 635.74 492.12 636.24Z" fill="black"/>
<path d="M482.94 640.63C385.48 618.48 285.86 607.04 187.98 586.93C180.87 584.1 190.16 567.78 196.14 568.89C259.01 580.92 322.16 592 385.37 602.2C420.89 607.46 456.12 614.48 491.1 622.58C498.22 625.45 488.93 641.72 482.94 640.63Z" fill="black"/>
</svg>
